<?xml version="1.0" encoding="UTF-8"?>
<svg version="1.1" xmlns="http://www.w3.org/2000/svg" width="831" height="194">
<path d="M0 0 C274.23 0 548.46 0 831 0 C831 64.02 831 128.04 831 194 C556.77 194 282.54 194 0 194 C0 129.98 0 65.96 0 0 Z " fill="#FDFDFE" transform="translate(0,0)"/>
<path d="M0 0 C18.11552533 -0.09353109 36.2309878 -0.16402212 54.34670258 -0.20724869 C62.75856102 -0.22785496 71.17026924 -0.25593839 79.58203125 -0.30175781 C86.91558132 -0.34168503 94.24902257 -0.36744688 101.58267832 -0.37635398 C105.46416607 -0.38155882 109.34534256 -0.39375127 113.22673035 -0.42292023 C116.88424767 -0.45018264 120.54132717 -0.45842339 124.19893646 -0.45243073 C126.1727 -0.45404628 128.14641645 -0.47551226 130.12005615 -0.49768066 C137.23126681 -0.46479353 141.98193629 0.10587336 148 4 C153.20389169 9.47778073 154.47054124 13.88456156 154.3125 21.3125 C153.71071291 26.48786899 150.78121379 29.42525847 147.0625 32.75 C144.36547702 34.73148627 142.16055155 35.97746862 139 37 C139 37.66 139 38.32 139 39 C139.66386719 39.268125 140.32773438 39.53625 141.01171875 39.8125 C146.46225355 42.23142347 150.38076716 44.39145859 153.22265625 49.76171875 C155.18256082 55.40506206 154.79982691 60.85860614 152.4375 66.3125 C150.04308817 70.38300012 147.48778667 73.31513892 143 75 C137.05918844 75.83704702 131.90638484 75.9030244 126.4375 73.3125 C121.72422581 68.84093218 118.15508752 64.99835881 117.8125 58.375 C118 55 118 55 119 53 C117.515 53.495 117.515 53.495 116 54 C115.89042969 54.66386719 115.78085938 55.32773437 115.66796875 56.01171875 C114.14752251 64.47924458 112.02818943 68.69299982 105 74 C102.625 75.3125 102.625 75.3125 101 76 C101 76.99 101 77.98 101 79 C101.79664062 79.34611328 101.79664062 79.34611328 102.609375 79.69921875 C108.18964242 82.2755101 111.2771032 84.81264091 114.25 90.3125 C116.00226061 96.59143386 115.45183177 101.53292665 112.34375 107.171875 C109.42981209 111.13618588 105.60998967 113.46333678 101 115 C95.55276191 115.64395644 91.19657085 115.33481224 86.5703125 112.2578125 C82.40032309 108.91767173 79.87393952 105.94725712 79.1875 100.625 C79.125625 99.42875 79.06375 98.2325 79 97 C78.34 97 77.68 97 77 97 C76.814375 97.99 76.62875 98.98 76.4375 100 C75.00233579 104.99762856 71.84877457 108.59746017 68 112 C64.5625 113.5 64.5625 113.5 62 114 C62 115.65 62 117.3 62 119 C63.299375 119.2784375 63.299375 119.2784375 64.625 119.5625 C69.4598272 121.62177825 72.65117545 125.30235089 75 130 C75.73228782 136.79981548 75.79929551 142.73624133 71.60546875 148.375 C67.38350884 152.64832195 62.88254448 154.2108793 56.9375 154.5 C50.7141965 154.22277143 46.9958702 152.0483931 42.625 147.5625 C40.96906386 144.95121609 40.3486004 143.05025346 40 140 C38.35 140 36.7 140 35 140 C34.95875 140.680625 34.9175 141.36125 34.875 142.0625 C33.63954522 146.21009818 31.24020695 149.15406602 28 152 C22.8004212 154.60408657 17.70051305 154.6790317 12 154 C6.36097314 151.23175045 2.3861913 146.81853269 0 141 C-0.24609566 138.30575943 -0.24609566 138.30575943 -0.24050903 135.16607666 C-0.24463303 133.37823509 -0.24463303 133.37823509 -0.24884033 131.55427551 C-0.24164978 130.25020248 -0.23445923 128.94612946 -0.22705078 127.60253906 C-0.22648652 126.21280424 -0.22680352 124.82306882 -0.22793579 123.43333435 C-0.22850972 119.66297805 -0.2167489 115.89274895 -0.20278788 112.12242222 C-0.19028725 108.18129178 -0.18911054 104.24015844 -0.18673706 100.29901123 C-0.18052033 92.836972 -0.16410689 85.37499136 -0.14403808 77.91297793 C-0.1216851 69.41728722 -0.11068716 60.92159371 -0.10064721 52.42588091 C-0.07974083 34.95055338 -0.0445611 17.47528289 0 0 Z " fill="#FBFCFC" transform="translate(0,0)"/>
<path d="M0 0 C5.04714221 3.01505312 8.86966463 6.34727515 10.7734375 12.05859375 C11.38826777 18.15960176 10.72505026 22.68244194 7.7734375 28.05859375 C5.7109375 30.49609375 5.7109375 30.49609375 3.7734375 32.05859375 C3.1134375 32.05859375 2.4534375 32.05859375 1.7734375 32.05859375 C1.4434375 34.69859375 1.1134375 37.33859375 0.7734375 40.05859375 C-0.16757813 40.0121875 -1.10859375 39.96578125 -2.078125 39.91796875 C-9.61708006 39.62175003 -9.61708006 39.62175003 -16.7890625 41.55859375 C-21.12026808 46.00085588 -24.45441489 50.17113631 -24.8515625 56.55859375 C-24.51013063 62.36293546 -21.64583162 66.85309626 -17.4140625 70.7109375 C-14.76226343 72.34463514 -12.54554536 72.77113212 -9.4765625 73.24609375 C-8.49171875 73.40464844 -7.506875 73.56320313 -6.4921875 73.7265625 C-5.74453125 73.83613281 -4.996875 73.94570312 -4.2265625 74.05859375 C-4.5565625 75.37859375 -4.8865625 76.69859375 -5.2265625 78.05859375 C-3.9890625 78.08953125 -3.9890625 78.08953125 -2.7265625 78.12109375 C2.27533053 79.46088653 5.34181233 82.24917498 8.7734375 86.05859375 C11.72287696 91.83457935 11.4956463 97.69135378 9.6484375 103.74609375 C6.60497317 109.12288074 2.69054748 112.11536307 -3.2265625 114.05859375 C-6.02823353 114.30468941 -6.02823353 114.30468941 -9.14277649 114.29910278 C-10.32763138 114.30185211 -11.51248627 114.30460144 -12.73324585 114.30743408 C-14.02437286 114.30024353 -15.31549988 114.29305298 -16.64575195 114.28564453 C-18.02578218 114.28508009 -19.40581301 114.28539762 -20.7858429 114.28652954 C-24.5251498 114.28710277 -28.26432808 114.27535337 -32.00360513 114.26138163 C-35.91403312 114.24886924 -39.82446414 114.24770337 -43.73490906 114.24533081 C-51.13670811 114.23911754 -58.538448 114.22270878 -65.94022101 114.20263183 C-74.36822149 114.18026809 -82.79622481 114.1692782 -91.22424757 114.15924096 C-108.55839289 114.13834241 -125.89245712 114.10166808 -143.2265625 114.05859375 C-143.2265625 96.56859375 -143.2265625 79.07859375 -143.2265625 61.05859375 C-142.2365625 62.37859375 -141.2465625 63.69859375 -140.2265625 65.05859375 C-136.45825346 70.01249741 -136.45825346 70.01249741 -131.2265625 73.05859375 C-125.07266068 73.77437991 -119.40462729 73.75721146 -114.2265625 70.05859375 C-111.25902025 67.17191096 -108.71739903 64.31251032 -108.2265625 60.05859375 C-106.5765625 60.05859375 -104.9265625 60.05859375 -103.2265625 60.05859375 C-102.99582031 60.5896875 -102.76507813 61.12078125 -102.52734375 61.66796875 C-100.41467027 66.2440362 -98.58839794 69.26254539 -94.2265625 72.05859375 C-88.49534175 73.96900067 -82.42419214 73.94261408 -76.8515625 71.49609375 C-72.92276087 69.19766527 -70.50106664 66.45641975 -69.2265625 62.05859375 C-68.26463906 55.92422235 -68.1968821 50.70882211 -71.8515625 45.49609375 C-74.56872187 42.38429932 -77.3314495 40.54244632 -81.2265625 39.05859375 C-81.7265625 36.87109375 -81.7265625 36.87109375 -81.2265625 34.05859375 C-79.35773645 32.62173479 -77.38241626 31.53237376 -75.33203125 30.37109375 C-70.25433806 27.20577851 -67.73460759 22.81658408 -66.2265625 17.05859375 C-65.5665625 17.05859375 -64.9065625 17.05859375 -64.2265625 17.05859375 C-64.05640625 17.65027344 -63.88625 18.24195312 -63.7109375 18.8515625 C-61.8347902 24.96900023 -60.01263275 29.17961614 -54.5390625 32.87109375 C-48.83164611 34.91714868 -43.65587458 34.9750043 -38.0390625 32.55859375 C-34.13557064 30.40467494 -31.94621157 27.46515779 -29.55078125 23.765625 C-28.2265625 22.05859375 -28.2265625 22.05859375 -25.2265625 21.05859375 C-25.3090625 19.90359375 -25.3915625 18.74859375 -25.4765625 17.55859375 C-25.45059185 12.66745497 -24.12225817 8.9980867 -21.2265625 5.05859375 C-15.33260199 -0.35313363 -7.76638394 -3.28368163 0 0 Z " fill="#FCFCFD" transform="translate(143.2265625,79.94140625)"/>
<path d="M0 0 C8.03353889 5.64634851 12.79079449 12.42677614 15 22 C16.16041218 33.85516019 16.17068541 45.71259816 9.08203125 55.703125 C3.67500567 62.24897543 -1.75584532 67.29798703 -10.43212891 68.2734375 C-20.8547129 69.01539044 -31.33440546 69.6288095 -40 63 C-41.0725 62.319375 -42.145 61.63875 -43.25 60.9375 C-48.28297415 56.47808416 -52.59929641 47.50766181 -53.19287109 40.83032227 C-53.64792154 26.63136931 -53.86359393 15.06689598 -43.8125 4 C-32.70643355 -5.98277751 -12.95432356 -8.28587866 0 0 Z " fill="#323478" transform="translate(764,65)"/>
<path d="M0 0 C4.95 0 9.9 0 15 0 C15.33 9.24 15.66 18.48 16 28 C23.53588056 20.62024094 23.53588056 20.62024094 30.6875 12.875 C31.244375 12.25367187 31.80125 11.63234375 32.375 10.9921875 C34.08547076 8.99144301 34.08547076 8.99144301 35.5 6.5078125 C37.51016958 3.52047715 38.89008367 1.87104107 42 0 C48.58585049 -1.11457136 55.37651657 -0.55353397 62 0 C57.11600368 5.85928351 51.86893429 11.18204979 46.390625 16.48242188 C42.71133449 20.09840476 39.67961982 23.58610846 37 28 C44.07652722 39.45795152 51.35823444 50.75088462 58.9609375 61.8671875 C59.51007813 62.67414063 60.05921875 63.48109375 60.625 64.3125 C61.09164062 64.98925781 61.55828125 65.66601562 62.0390625 66.36328125 C63 68 63 68 63 70 C47.20937535 71.65425592 47.20937535 71.65425592 42.66796875 68.25390625 C41.22311716 65.90922304 40.05799677 63.55245386 38.96533203 61.02685547 C36.85635036 56.59874069 34.12363295 52.48920773 31.5625 48.3125 C30.49875867 46.53928372 29.43736577 44.76465538 28.37890625 42.98828125 C27.69163452 41.83646362 27.69163452 41.83646362 26.99047852 40.66137695 C26.66362061 40.11312256 26.3367627 39.56486816 26 39 C24.8944811 39.93590504 23.79064547 40.87379858 22.6875 41.8125 C21.76517578 42.59560547 21.76517578 42.59560547 20.82421875 43.39453125 C20.22222656 43.92433594 19.62023437 44.45414063 19 45 C18.43949951 45.45544189 17.87899902 45.91088379 17.30151367 46.38012695 C15.4958112 48.62751692 15.57090108 50.2468226 15.48828125 53.10546875 C15.45283203 54.08837891 15.41738281 55.07128906 15.38085938 56.08398438 C15.34702148 57.62022461 15.34702148 57.62022461 15.3125 59.1875 C15.27833984 60.22326172 15.24417969 61.25902344 15.20898438 62.32617188 C15.12648241 64.88373264 15.06156544 67.44184963 15 70 C10.05 70 5.1 70 0 70 C0 46.9 0 23.8 0 0 Z " fill="#333579" transform="translate(276,62)"/>
<path d="M0 0 C3.18741812 2.3124406 5.05442849 4.02318677 7.1875 7.3125 C7.57508176 9.97348988 7.74607144 12.23215983 7.7265625 14.88671875 C7.73835541 15.6105928 7.75014832 16.33446686 7.76229858 17.08027649 C7.79744576 19.38706995 7.80670645 21.69296139 7.8125 24 C7.83427391 27.02497311 7.86814498 30.04951645 7.9140625 33.07421875 C7.92439514 33.79608368 7.93472778 34.51794861 7.94537354 35.26168823 C8.07110157 40.83555078 8.84186156 45.9137986 10.1875 51.3125 C5.8975 51.3125 1.6075 51.3125 -2.8125 51.3125 C-3.4725 49.9925 -4.1325 48.6725 -4.8125 47.3125 C-5.369375 47.60125 -5.92625 47.89 -6.5 48.1875 C-14.2081427 51.93740726 -22.0964482 52.88451727 -30.375 50.125 C-34.08851979 47.36366477 -36.3456485 44.7130545 -37.8125 40.3125 C-38.31421564 34.19156919 -37.90083623 31.1957905 -33.8125 26.3125 C-30.90389097 23.80697564 -28.37679648 22.68816387 -24.6796875 21.70703125 C-23.70902344 21.44599609 -22.73835937 21.18496094 -21.73828125 20.91601562 C-20.22814453 20.52446289 -20.22814453 20.52446289 -18.6875 20.125 C-17.67300781 19.85236328 -16.65851562 19.57972656 -15.61328125 19.29882812 C-8.13592575 17.3125 -8.13592575 17.3125 -5.8125 17.3125 C-6.78026098 13.51702079 -6.78026098 13.51702079 -8.8125 10.3125 C-12.5192502 9.88361981 -16.11381239 9.79424731 -19.8125 10.3125 C-21.19826923 11.93582967 -22.53891268 13.59974465 -23.8125 15.3125 C-26.5968647 15.52847797 -29.11474696 14.97035371 -31.8125 14.3125 C-32.6375 14.126875 -33.4625 13.94125 -34.3125 13.75 C-34.8075 13.605625 -35.3025 13.46125 -35.8125 13.3125 C-35.11202429 8.40917002 -33.99382318 5.01738857 -29.98828125 1.88671875 C-21.63481053 -3.14805562 -8.98090725 -4.11133465 0 0 Z " fill="#303277" transform="translate(577.8125,81.6875)"/>
<path d="M0 0 C3.19544777 2.31826603 5.05826465 4.00813303 7.1875 7.3125 C7.57488741 10.06523149 7.74595521 12.42884785 7.7265625 15.17578125 C7.73835541 15.9265947 7.75014832 16.67740814 7.76229858 17.45097351 C7.79746005 19.84252727 7.80671166 22.23320943 7.8125 24.625 C7.82893441 27.00581454 7.85120486 29.38624625 7.88412476 31.76689148 C7.9034851 33.2438528 7.91311952 34.7209876 7.91104126 36.19807434 C7.96178579 41.18568855 8.83225561 45.50922573 10.1875 50.3125 C8.06311661 50.39328641 5.9378677 50.45159141 3.8125 50.5 C2.62914062 50.53480469 1.44578125 50.56960937 0.2265625 50.60546875 C-1.27777344 50.46044922 -1.27777344 50.46044922 -2.8125 50.3125 C-3.4725 49.3225 -4.1325 48.3325 -4.8125 47.3125 C-7.7844385 48.43701727 -10.14690687 49.53543791 -12.8125 51.3125 C-15.95703125 51.61328125 -15.95703125 51.61328125 -19.625 51.625 C-20.82769531 51.64175781 -22.03039062 51.65851563 -23.26953125 51.67578125 C-28.4193694 51.14773831 -31.6638282 49.58535254 -35.125 45.75 C-38.22408224 41.27354787 -38.45464742 37.67578758 -37.8125 32.3125 C-35.49433367 27.58700711 -32.45604336 24.68930981 -27.8125 22.3125 C-24.44414467 21.17217505 -21.02682931 20.35620081 -17.5625 19.5625 C-16.65242188 19.34207031 -15.74234375 19.12164062 -14.8046875 18.89453125 C-8.18177407 17.3125 -8.18177407 17.3125 -5.8125 17.3125 C-6.78026098 13.51702079 -6.78026098 13.51702079 -8.8125 10.3125 C-12.52132497 9.88337976 -16.11083237 9.80527441 -19.8125 10.3125 C-22.56020272 12.5913824 -22.56020272 12.5913824 -23.8125 15.3125 C-29.7525 14.3225 -29.7525 14.3225 -35.8125 13.3125 C-34.18305838 5.16529188 -34.18305838 5.16529188 -29.98828125 1.88671875 C-21.63481053 -3.14805562 -8.98090725 -4.11133465 0 0 Z " fill="#323478" transform="translate(380.8125,81.6875)"/>
<path d="M0 0 C4.24146378 2.30603856 6.39937177 5.26703056 8.75 9.4375 C8.75 10.4275 8.75 11.4175 8.75 12.4375 C4.42199412 13.43237104 0.19570189 14.27950324 -4.25 14.4375 C-6.9375 12.0625 -6.9375 12.0625 -9.25 9.4375 C-13.27599269 8.81811651 -17.55155946 8.58827973 -21.25 10.4375 C-21.25 11.7575 -21.25 13.0775 -21.25 14.4375 C-20.36699219 14.67984375 -19.48398437 14.9221875 -18.57421875 15.171875 C6.20252229 22.09126562 6.20252229 22.09126562 9.83984375 28.296875 C11.42810452 32.03235526 11.48668372 35.4672311 10.75 39.4375 C7.93801727 45.13151485 3.70205702 49.11273535 -2.25 51.4375 C-5.41785091 51.95774074 -8.48414401 51.95387533 -11.6875 51.875 C-12.89889648 51.88563477 -12.89889648 51.88563477 -14.13476562 51.89648438 C-20.65669927 51.82816436 -26.38847452 50.7836564 -31.52734375 46.5703125 C-32.07519531 45.90773437 -32.62304688 45.24515625 -33.1875 44.5625 C-33.75339844 43.90507813 -34.31929687 43.24765625 -34.90234375 42.5703125 C-36.25 40.4375 -36.25 40.4375 -37.25 35.4375 C-32.63 35.1075 -28.01 34.7775 -23.25 34.4375 C-22.26 36.0875 -21.27 37.7375 -20.25 39.4375 C-17.52457733 40.80021133 -15.28912726 40.60673601 -12.25 40.625 C-11.1775 40.63917969 -10.105 40.65335938 -9 40.66796875 C-6.10546904 40.72335786 -6.10546904 40.72335786 -4.25 38.4375 C-4.25 37.1175 -4.25 35.7975 -4.25 34.4375 C-4.85473145 34.27668945 -5.45946289 34.11587891 -6.08251953 33.95019531 C-8.84988266 33.20735727 -11.61233046 32.44759955 -14.375 31.6875 C-15.80199219 31.30851562 -15.80199219 31.30851562 -17.2578125 30.921875 C-23.90607619 29.07513509 -29.71389085 26.9285795 -34.25 21.4375 C-36.03983568 16.06799295 -36.13431724 11.24014667 -33.625 6.125 C-25.64802434 -2.90157772 -11.0650275 -4.38850243 0 0 Z " fill="#343678" transform="translate(691.25,81.5625)"/>
<path d="M0 0 C14.19 0 28.38 0 43 0 C43 10 43 10 40.91015625 13.21484375 C39.97042969 14.11332031 39.03070313 15.01179688 38.0625 15.9375 C37.04815428 16.94658494 36.03648077 17.95836235 35.02734375 18.97265625 C34.51800293 19.47297363 34.00866211 19.97329102 33.48388672 20.48876953 C30.43569035 23.59313536 27.7938661 27.043368 25.0703125 30.4296875 C22.74717945 33.3138791 20.37088802 36.15493438 18 39 C26.58 39 35.16 39 44 39 C44 43.29 44 47.58 44 52 C28.82 52 13.64 52 -2 52 C-2 40 -2 40 0.08984375 36.58984375 C1.49943359 35.27693359 1.49943359 35.27693359 2.9375 33.9375 C3.95070033 32.94946111 4.96106798 31.95851004 5.96875 30.96484375 C6.47792969 30.47741699 6.98710937 29.98999023 7.51171875 29.48779297 C10.63783535 26.362702 13.27738102 22.8291588 16.02734375 19.375 C17.88788011 17.1349879 19.94096506 15.05903494 22 13 C14.74 12.67 7.48 12.34 0 12 C0 8.04 0 4.08 0 0 Z " fill="#33357A" transform="translate(398,81)"/>
<path d="M0 0 C3.26827691 2.90432625 5.42085632 6.45866776 6.104599 10.76976013 C6.21429276 13.2595996 6.20429423 15.71941907 6.14453125 18.2109375 C6.13887146 19.11107071 6.13321167 20.01120392 6.12738037 20.93861389 C6.10512855 23.79166606 6.05495424 26.64342619 6.00390625 29.49609375 C5.98382673 31.43943489 5.96557851 33.38279586 5.94921875 35.32617188 C5.9053006 40.07080443 5.8363519 44.81448062 5.75390625 49.55859375 C1.13390625 49.55859375 -3.48609375 49.55859375 -8.24609375 49.55859375 C-8.26067627 48.45346436 -8.27525879 47.34833496 -8.2902832 46.2097168 C-8.34823641 42.11124236 -8.42546894 38.01331908 -8.50854492 33.9152832 C-8.54180839 32.14128563 -8.56983593 30.36718185 -8.5925293 28.59301758 C-8.62604977 26.04332199 -8.6783624 23.49460083 -8.734375 20.9453125 C-8.74076492 20.15146652 -8.74715485 19.35762054 -8.7537384 18.53971863 C-8.84476172 14.33104883 -8.84476172 14.33104883 -10.53588867 10.56567383 C-13.61062723 8.75506761 -16.8617233 8.83290028 -20.24609375 9.55859375 C-22.93714573 11.73433791 -24.70142303 13.46925231 -26.24609375 16.55859375 C-26.40235951 19.03692034 -26.50422573 21.49170706 -26.5625 23.97265625 C-26.5832811 24.70229584 -26.60406219 25.43193542 -26.62547302 26.1836853 C-26.69091292 28.51689138 -26.74982743 30.85021096 -26.80859375 33.18359375 C-26.85178428 34.7643347 -26.89539874 36.34506414 -26.93945312 37.92578125 C-27.04658856 41.80326879 -27.14787157 45.6808706 -27.24609375 49.55859375 C-31.53609375 49.55859375 -35.82609375 49.55859375 -40.24609375 49.55859375 C-40.24609375 32.72859375 -40.24609375 15.89859375 -40.24609375 -1.44140625 C-36.28609375 -1.44140625 -32.32609375 -1.44140625 -28.24609375 -1.44140625 C-27.91609375 0.53859375 -27.58609375 2.51859375 -27.24609375 4.55859375 C-26.77558594 4.13707031 -26.30507813 3.71554688 -25.8203125 3.28125 C-25.19769531 2.73339844 -24.57507813 2.18554688 -23.93359375 1.62109375 C-23.31871094 1.07582031 -22.70382812 0.53054687 -22.0703125 -0.03125 C-15.94221036 -4.76839105 -6.49704964 -3.15731354 0 0 Z " fill="#333579" transform="translate(639.24609375,82.44140625)"/>
<path d="M0 0 C5.25539745 2.98836326 8.73883511 6.31251303 10.6796875 12.1796875 C12.28540439 20.50471199 12.618376 30.35699189 8.53125 37.9765625 C5.50548608 42.11060041 2.06048037 45.18817321 -2.8125 46.8125 C-8.70849608 47.38520026 -14.25224769 47.61643123 -19.3125 44.22265625 C-23.92788928 39.88370956 -26.67302773 34.37396182 -27.015625 28.08203125 C-27.31760738 10.96328505 -27.31760738 10.96328505 -21.4375 4 C-14.48246132 -1.79586556 -8.71911025 -2.71578844 0 0 Z " fill="#FCFCFD" transform="translate(752.8125,74.1875)"/>
<path d="M0 0 C18.48 0 36.96 0 56 0 C56 3.96 56 7.92 56 12 C49.07 12 42.14 12 35 12 C35 31.14 35 50.28 35 70 C30.38 70 25.76 70 21 70 C21 50.86 21 31.72 21 12 C14.07 12 7.14 12 0 12 C0 8.04 0 4.08 0 0 Z " fill="#2F3177" transform="translate(446,62)"/>
<path d="M0 0 C2.475 0.99 2.475 0.99 5 2 C4.95359375 2.78503906 4.9071875 3.57007813 4.859375 4.37890625 C4.62394651 11.23155684 4.68587 15.55057263 9 21 C12.00478122 23.3302385 14.40255459 24.80085153 18 26 C18.495 27.485 18.495 27.485 19 29 C18.34 29 17.68 29 17 29 C17 29.66 17 30.32 17 31 C15.9275 31.556875 14.855 32.11375 13.75 32.6875 C9.69684772 34.99303804 7.0976684 37.80466319 5 42 C4.77532169 43.53668865 4.59203195 45.07968054 4.4375 46.625 C4.35371094 47.44226563 4.26992187 48.25953125 4.18359375 49.1015625 C4.12300781 49.72804687 4.06242187 50.35453125 4 51 C3.34 50.01 2.68 49.02 2 48 C1.34 48 0.68 48 0 48 C-0.17015625 47.40832031 -0.3403125 46.81664062 -0.515625 46.20703125 C-2.3917723 40.08959352 -4.21392975 35.87897761 -9.6875 32.1875 C-15.49219947 30.10657 -20.63755854 30.09928118 -26.3125 32.625 C-31.02622937 35.26356166 -33.30822627 38.9246788 -35 44 C-35.06740865 45.56118428 -35.08514456 47.1250252 -35.0625 48.6875 C-35.05347656 49.49574219 -35.04445313 50.30398437 -35.03515625 51.13671875 C-35.02355469 51.75160156 -35.01195313 52.36648437 -35 53 C-37.475 53.495 -37.475 53.495 -40 54 C-39.95359375 53.3709375 -39.9071875 52.741875 -39.859375 52.09375 C-39.59518712 45.82872308 -40.17876948 41.11074795 -44 36 C-48.0717664 32.56161949 -51.92253557 31.21859146 -57 30 C-55.68 29.67 -54.36 29.34 -53 29 C-53.33 28.01 -53.66 27.02 -54 26 C-53.20335938 25.63648438 -53.20335938 25.63648438 -52.390625 25.265625 C-47.13000831 22.76971197 -43.17391973 20.7803362 -40.8125 15.1875 C-39.94950882 11.8019192 -39.41606724 8.46722702 -39 5 C-37.68 4.67 -36.36 4.34 -35 4 C-35.05800781 4.556875 -35.11601563 5.11375 -35.17578125 5.6875 C-35.55727274 12.14015602 -34.16618056 16.06519255 -30 21 C-26.14127012 24.85872988 -22.84064238 25.3267067 -17.5625 25.5625 C-12.56814251 25.39165539 -9.07698351 24.90453241 -5.30078125 21.53125 C-0.51354666 15.8958267 -0.72763463 10.58421614 -0.9921875 3.4765625 C-0.99605469 2.25066406 -0.99605469 2.25066406 -1 1 C-0.67 0.67 -0.34 0.34 0 0 Z " fill="#F7F7FA" transform="translate(154,49)"/>
<path d="M0 0 C5.81369997 2.63180481 9.23596352 6.41485032 11.79296875 12.265625 C12.82938976 18.67697356 11.50136188 23.97306393 7.79296875 29.265625 C2.67984366 34.12309384 -1.63569712 35.81131746 -8.609375 35.63671875 C-13.82393742 34.89178126 -17.31885746 32.33756266 -20.8125 28.50390625 C-23.99524013 24.10869369 -24.99910909 20.12793229 -24.68359375 14.72265625 C-23.53306561 8.79083494 -20.31400309 4.73350289 -15.45703125 1.265625 C-10.32266788 -1.5814374 -5.55171242 -1.84729546 0 0 Z " fill="#303278" transform="translate(221.20703125,79.734375)"/>
<path d="M0 0 C5.27770532 2.43662283 8.24870211 5.44935671 11.02734375 10.58984375 C12.77960436 16.86877761 12.22917552 21.8102704 9.12109375 27.44921875 C6.20715584 31.41352963 2.38733342 33.74068053 -2.22265625 35.27734375 C-7.67450481 35.92184523 -12.00804987 35.59657398 -16.65234375 32.55078125 C-20.45867446 29.46405535 -23.3189947 26.20137709 -24.22265625 21.27734375 C-24.76210244 15.57166286 -24.54246087 11.14639052 -21.22265625 6.27734375 C-15.08154005 0.08462153 -8.56063299 -2.7833341 0 0 Z " fill="#323579" transform="translate(103.22265625,79.72265625)"/>
<path d="M0 0 C4.786687 2.656142 7.59401129 6.32734468 9.75 11.3125 C10.76574492 17.59942643 9.94508592 22.42487918 6.25 27.62109375 C2.86790843 31.43475429 -1.16001616 33.88587501 -6.23046875 34.5859375 C-12.47396232 34.87324871 -16.51748545 33.42400586 -21.25 29.3125 C-25.21622393 24.22759752 -26.6765431 20.08093256 -26.59375 13.7265625 C-25.78590256 8.05327028 -22.52129368 4.30410907 -18.125 0.875 C-12.05307407 -2.42495974 -6.26299708 -2.90322107 0 0 Z " fill="#313479" transform="translate(26.25,80.6875)"/>
<path d="M0 0 C5.79056307 2.66841246 9.34519945 6.36975389 11.84375 12.27734375 C12.51750822 17.46371516 12.50300549 21.90812081 10.21875 26.65234375 C6.31875489 30.96286466 2.67761559 34.86848745 -3.390625 35.515625 C-9.62273207 35.69949151 -13.11370524 35.00882687 -18.15625 31.27734375 C-22.80880219 26.2475576 -24.5982406 22.29783024 -24.3984375 15.515625 C-23.74737316 9.49853034 -20.39221134 6.25223775 -15.97265625 2.57421875 C-10.93610846 -1.02176806 -5.93860097 -1.99029199 0 0 Z " fill="#323478" transform="translate(142.15625,0.72265625)"/>
<path d="M0 0 C4.90713015 2.31973425 7.8111048 5.71776931 11 10 C12.73973368 15.21920105 12.46891181 19.54390543 10.8125 24.6875 C7.73717311 30.307925 4.00471049 33.71821001 -2 36 C-7.46488945 36.59616976 -11.17402578 35.5917269 -16 33 C-20.31394487 29.37236454 -23.53109322 25.57139961 -24.28515625 19.828125 C-24.47873937 14.81179718 -23.91184658 11.22687407 -21 7 C-14.26692422 0.36043916 -9.51272944 -0.88519501 0 0 Z " fill="#313478" transform="translate(24,40)"/>
<path d="M0 0 C5.04714221 3.01505312 8.86966463 6.34727515 10.7734375 12.05859375 C11.37553733 18.03327664 10.82900882 22.76227012 7.7734375 28.05859375 C4.46052941 31.55709893 0.53159647 34.61272595 -4.3046875 35.39453125 C-10.07838817 35.49837479 -14.54301862 34.56870071 -19.2265625 31.05859375 C-23.59586081 26.28814399 -25.62135595 21.84785747 -25.5 15.24609375 C-24.91451893 10.56224517 -22.98929911 6.67710646 -19.5078125 3.48046875 C-13.6806138 -0.81585572 -6.98907797 -2.95503121 0 0 Z " fill="#323478" transform="translate(143.2265625,79.94140625)"/>
<path d="M0 0 C4.49640561 3.39524505 7.50033614 6.84492649 9.0625 12.3125 C9.56966858 17.78992068 8.76603029 21.51591401 6.0625 26.3125 C1.61636756 31.09895368 -2.69048326 33.9449132 -9.25 34.6875 C-14.56362076 34.14713179 -18.84000861 32.59125608 -22.51953125 28.59375 C-26.7858654 22.79055196 -27.85894281 17.46162526 -26.9375 10.3125 C-25.02858005 5.28767484 -21.8912751 1.31827647 -17.0234375 -1.0625 C-11.38907004 -2.75069999 -5.26382857 -2.77341505 0 0 Z " fill="#323478" transform="translate(105.9375,41.6875)"/>
<path d="M0 0 C3.94642295 2.78043435 7.85650216 6.21955447 9.40234375 10.921875 C10.51268565 17.35936289 9.99039463 22.21280281 6.75 27.9375 C2.65598682 32.38444535 -1.6335878 34.69523961 -7.625 35.25 C-13.06347859 34.78116564 -16.78409608 33.13687593 -21 29.6875 C-24.3858991 25.54917888 -26.01226847 21.80539061 -26.6875 16.5 C-25.95830556 10.56227387 -23.74357762 5.94254098 -19.1875 2 C-13.38956943 -2.07088742 -6.63547928 -2.1692913 0 0 Z " fill="#323478" transform="translate(144.25,159.0625)"/>
<path d="M0 0 C4.52622065 2.36995244 7.61647293 5.73294587 9.8828125 10.265625 C10.37610005 16.12038211 10.74025538 21.45546781 8.1953125 26.828125 C3.48176792 31.79645578 -0.5260039 34.85907591 -7.4296875 35.640625 C-13.44263646 35.02913866 -18.07396234 32.803329 -22.0546875 28.203125 C-25.81277606 22.85069584 -25.73037056 17.61073666 -25.1171875 11.265625 C-23.59245077 6.04073099 -20.12945466 2.77883336 -15.4609375 0.1484375 C-10.42745474 -1.74750767 -5.08201166 -1.76276419 0 0 Z " fill="#323479" transform="translate(183.1171875,40.734375)"/>
<path d="M0 0 C4.92265695 2.2855193 7.81049249 5.71694706 11 10 C12.7914557 15.37436709 12.71176628 20.06794566 10.375 25.1875 C7.71781367 29.99123898 4.28700659 33.23766447 -1 35 C-7.59295421 35.74556833 -12.88735645 35.55454628 -18.33984375 31.53515625 C-22.79628721 27.41425677 -24.23561687 23.62241032 -24.5625 17.5625 C-24.27916935 10.44992359 -21.40464766 6.40464766 -16.5 1.5 C-11.05477761 -0.83366674 -5.83089007 -0.72886126 0 0 Z " fill="#323478" transform="translate(103,119)"/>
<path d="M0 0 C4.87361305 2.44758886 7.92397955 6.3925127 9.828125 11.38671875 C10.99708328 17.39091355 10.44682065 22.12748401 7.265625 27.38671875 C4.25879955 31.30470343 1.7141568 33.1652108 -3.171875 34.38671875 C-9.16770757 35.04444919 -14.07947595 34.9395553 -19.171875 31.38671875 C-23.28665528 27.29486203 -26.42840443 23.05552094 -26.609375 17.13671875 C-26.48797233 11.873046 -24.49325387 8.37598359 -21.171875 4.38671875 C-14.9768716 -1.23200526 -8.16667671 -2.30605799 0 0 Z " fill="#323478" transform="translate(144.171875,119.61328125)"/>
<path d="M0 0 C4.44496055 2.49696987 7.0635749 5.44072469 8.6875 10.3125 C9.41339681 17.31221923 9.3777977 22.95664268 5.1171875 28.7578125 C0.9724154 33.26496905 -3.32030926 34.18397157 -9.1875 34.5625 C-14.06359684 34.4631721 -17.45397513 33.1536148 -20.98046875 29.66015625 C-25.78521542 24.26194918 -26.67522187 20.23537766 -26.58984375 13.03515625 C-26.05329199 7.76788054 -23.04319435 4.83914615 -19.25 1.5 C-13.43072321 -2.83350399 -6.53360555 -3.03433366 0 0 Z " fill="#323478" transform="translate(184.3125,80.6875)"/>
<path d="M0 0 C4.58246409 1.98515143 7.42634797 4.74021521 9.82421875 9.11328125 C11.91644419 14.72468772 11.47079176 20.24742614 9.109375 25.69921875 C6.71496317 29.76971887 4.15966167 32.70185767 -0.328125 34.38671875 C-6.26893656 35.22376577 -11.42174016 35.28974315 -16.890625 32.69921875 C-21.44001628 28.38312959 -25.02849054 24.50291712 -25.640625 18.13671875 C-25.10608224 11.72220561 -23.70797537 7.2531822 -18.765625 2.94921875 C-13.12271681 -1.50443137 -6.9573299 -1.83271945 0 0 Z " fill="#313378" transform="translate(143.328125,40.61328125)"/>
<path d="M0 0 C3.5 1.5625 3.5 1.5625 6 4 C6.48210937 4.46277344 6.96421875 4.92554687 7.4609375 5.40234375 C11.39860462 9.85125494 11.75270467 14.25234137 11.4765625 20.05859375 C10.60861413 25.4156849 8.51747202 29.03514379 4.23828125 32.375 C-0.90258258 35.37818211 -6.16395708 35.94252569 -12 35 C-16.85604658 33.27032246 -20.1545011 30.26824834 -23 26 C-25.01138947 19.9658316 -25.07756502 13.23494967 -22.3125 7.5 C-15.33309744 -0.04530006 -10.07212359 -0.85981543 0 0 Z " fill="#313378" transform="translate(64,119)"/>
<path d="M0 0 C5.1694178 1.85334432 8.95978972 5.10112565 11.37890625 10.046875 C12.99501812 15.1289878 12.39117401 19.64239607 10.9375 24.6875 C8.06889961 29.59188132 4.44160558 33.18613147 -1 35 C-6.2674928 35.50442239 -10.63179168 35.6716659 -15.4375 33.3125 C-19.53846263 29.61163128 -23.50796878 25.51450873 -24.30078125 19.8515625 C-24.32736038 14.80152789 -23.95053053 11.28302819 -21 7 C-14.3073345 0.40028819 -9.48059162 -1.03359833 0 0 Z " fill="#303278" transform="translate(24,119)"/>
<path d="M0 0 C4.40228895 2.50797067 7.01233571 5.47450712 8.625 10.3125 C9.37653569 16.95822278 9.15525518 22.17787494 5.0859375 27.65234375 C1.85857247 31.31980401 -0.48288545 33.0808125 -5.4375 33.6875 C-10.51857286 33.87226629 -14.30274193 33.82041172 -18.9375 31.625 C-26.14602883 24.78613931 -26.14602883 24.78613931 -26.61328125 19.73828125 C-26.7750875 12.95093495 -26.56524358 8.74849167 -22.375 3.3125 C-16.04471993 -2.55458885 -7.89528147 -3.67360189 0 0 Z " fill="#303378" transform="translate(66.375,41.6875)"/>
<path d="M0 0 C3.66864538 2.68437467 6.50666083 5.76332166 8.5625 9.875 C9.24581069 17.25699585 9.34644712 23.01466478 4.5625 28.875 C0.46688547 32.65260211 -3.37003713 34.21429109 -8.9375 34.5 C-15.27292455 34.17488113 -19.54906377 32.02527748 -23.81640625 27.37109375 C-27.26825202 22.37974882 -27.29049722 16.72535464 -26.4375 10.875 C-22.34079498 -1.02077981 -11.03550286 -3.61161912 0 0 Z " fill="#313378" transform="translate(184.4375,120.125)"/>
<path d="M0 0 C4.47413236 2.46605721 7.51255818 5.77511637 9.8125 10.375 C10.34029267 16.5867137 10.55653643 22.133349 6.8125 27.375 C2.58602218 31.61331669 -1.00373442 34.19600282 -7 34.6875 C-12.61613368 34.52047744 -16.71486518 32.61855829 -21 29 C-25.15766108 24.01080671 -25.63611568 19.41852799 -25.5 13.09765625 C-25.0121398 8.84717422 -23.82120285 6.77109052 -21.1875 3.375 C-14.59724659 -1.73580877 -7.7565262 -3.54038412 0 0 Z " fill="#313377" transform="translate(65.1875,80.625)"/>
<path d="M0 0 C4.62 0 9.24 0 14 0 C14 23.43 14 46.86 14 71 C9.38 71 4.76 71 0 71 C0 47.57 0 24.14 0 0 Z " fill="#2F3178" transform="translate(817,62)"/>
<path d="M0 0 C3 1 3 1 5 2 C4.45660208 6.56454251 3.20536179 9.9728176 1 14 C-0.051875 13.79375 -1.10375 13.5875 -2.1875 13.375 C-6.04612303 12.99546331 -7.75112112 12.95784756 -11 15 C-13.17849932 19.12670014 -13.33821722 23.13690701 -13.4140625 27.70703125 C-13.43342865 28.43242599 -13.4527948 29.15782074 -13.4727478 29.90519714 C-13.53222108 32.20751422 -13.57879845 34.50988219 -13.625 36.8125 C-13.66320958 38.37957832 -13.70226303 39.94663631 -13.7421875 41.51367188 C-13.83789563 45.34228152 -13.92204448 49.17098942 -14 53 C-18.62 53 -23.24 53 -28 53 C-28 35.84 -28 18.68 -28 1 C-23.71 1 -19.42 1 -15 1 C-14.67 2.32 -14.34 3.64 -14 5 C-13.175 4.175 -12.35 3.35 -11.5 2.5 C-7.61864474 -0.73905061 -4.94779029 -0.54975448 0 0 Z " fill="#343678" transform="translate(533,80)"/>
<path d="M0 0 C4.62 0 9.24 0 14 0 C14 17.16 14 34.32 14 52 C9.38 52 4.76 52 0 52 C0 34.84 0 17.68 0 0 Z " fill="#37397C" transform="translate(790,81)"/>
<path d="M0 0 C1.2065625 0.0309375 1.2065625 0.0309375 2.4375 0.0625 C2.7675 1.0525 3.0975 2.0425 3.4375 3.0625 C2.756875 3.371875 2.07625 3.68125 1.375 4 C-0.76166223 5.84844771 -0.76166223 5.84844771 -0.74609375 8.16015625 C-0.47434284 11.71604578 -0.13555201 14.28314927 2 17.1875 C5.63822431 18.49352924 8.74582441 18.08376271 12.4375 17.0625 C14.87638182 15.65644927 14.87638182 15.65644927 16.4375 14.0625 C16.4375 16.0425 16.4375 18.0225 16.4375 20.0625 C17.0975 20.0625 17.7575 20.0625 18.4375 20.0625 C18.9325 22.0425 18.9325 22.0425 19.4375 24.0625 C18.90125 24.165625 18.365 24.26875 17.8125 24.375 C15.32090339 24.97428946 15.32090339 24.97428946 13 26.625 C6.58032319 29.21539591 -0.58355443 29.05548186 -7.125 26.875 C-10.83851979 24.11366477 -13.0956485 21.4630545 -14.5625 17.0625 C-14.94550113 12.38988623 -14.97960143 9.96343909 -13 5.6875 C-10.03639928 2.49592999 -7.76723218 1.93518026 -3.5625 1.0625 C-2.5625 0.0625 -2.5625 0.0625 0 0 Z " fill="#333576" transform="translate(554.5625,104.9375)"/>
<path d="M0 0 C4.62 0 9.24 0 14 0 C14 0.33 14 0.66 14 1 C11.36 1.33 8.72 1.66 6 2 C5.67 24.11 5.34 46.22 5 69 C7.97 69 10.94 69 14 69 C14 69.66 14 70.32 14 71 C9.38 71 4.76 71 0 71 C0 47.57 0 24.14 0 0 Z " fill="#3E3E7B" transform="translate(817,62)"/>
<path d="M0 0 C-2.36292656 2.52588702 -3.66462511 3.88820837 -7 5 C-8.62514468 6.45833358 -8.62514468 6.45833358 -10 8 C-11.54537736 9.54537736 -13.16936595 9.15178764 -15.3125 9.25 C-17.76820397 9.41472865 -17.76820397 9.41472865 -20 10 C-20.680625 10.86625 -21.36125 11.7325 -22.0625 12.625 C-22.701875 13.40875 -23.34125 14.1925 -24 15 C-26.78562624 15.20935813 -29.30109525 14.65813456 -32 14 C-32.825 13.814375 -33.65 13.62875 -34.5 13.4375 C-34.995 13.293125 -35.49 13.14875 -36 13 C-35.29952429 8.09667002 -34.18132318 4.70488857 -30.17578125 1.57421875 C-21.77724996 -3.48771437 -8.90363124 -4.35560742 0 0 Z " fill="#383B7B" transform="translate(578,82)"/>
<path d="M0 0 C0.80103149 0.00202423 1.60206299 0.00404846 2.42736816 0.00613403 C3.24483521 0.00517731 4.06230225 0.00422058 4.90454102 0.00323486 C6.63627194 0.00255308 8.3680054 0.00440724 10.09973145 0.00857544 C12.75978298 0.01392374 15.41966566 0.00863041 18.07971191 0.00222778 C19.75809771 0.00288857 21.43648339 0.00416973 23.11486816 0.00613403 C23.91589966 0.0041098 24.71693115 0.00208557 25.54223633 0 C31.15616738 0.02399575 31.15616738 0.02399575 32.27111816 1.13894653 C32.56497969 4.86119253 32.41920988 5.91680896 30.27111816 9.13894653 C29.28111816 9.13894653 28.29111816 9.13894653 27.27111816 9.13894653 C27.27111816 9.79894653 27.27111816 10.45894653 27.27111816 11.13894653 C26.61111816 11.13894653 25.95111816 11.13894653 25.27111816 11.13894653 C25.60111816 9.81894653 25.93111816 8.49894653 26.27111816 7.13894653 C26.93111816 7.13894653 27.59111816 7.13894653 28.27111816 7.13894653 C27.28111816 6.14894653 26.29111816 5.15894653 25.27111816 4.13894653 C25.27111816 5.12894653 25.27111816 6.11894653 25.27111816 7.13894653 C23.56955566 7.35550903 23.56955566 7.35550903 21.83361816 7.57644653 C18.46334615 7.75066131 18.46334615 7.75066131 17.27111816 9.13894653 C15.48818755 9.15566914 13.7044948 9.1017758 11.92346191 9.01785278 C10.84387207 8.96951294 9.76428223 8.9211731 8.65197754 8.87136841 C7.51566895 8.81529419 6.37936035 8.75921997 5.20861816 8.70144653 C4.06844238 8.6492395 2.9282666 8.59703247 1.75354004 8.54324341 C-1.07418207 8.4130972 -3.90159184 8.27811775 -6.72888184 8.13894653 C-7.77438092 5.00244929 -7.730585 4.14405603 -6.72888184 1.13894653 C-4.91322747 -0.67670783 -2.41618222 0.01032754 0 0 Z " fill="#2F317A" transform="translate(406.7288818359375,82.86105346679688)"/>
<path d="M0 0 C14.19 0 28.38 0 43 0 C43 11.30645161 43 11.30645161 38.75 15.625 C37.96109375 16.46289062 37.1721875 17.30078125 36.359375 18.1640625 C34 20 34 20 30 20 C29 19 28 18 27 17 C24.54713404 16.00922702 24.54713404 16.00922702 22 16 C20.1645201 17.33378575 20.1645201 17.33378575 19 19 C18.34 18.67 17.68 18.34 17 18 C18.65 16.35 20.3 14.7 22 13 C14.74 12.67 7.48 12.34 0 12 C0 8.04 0 4.08 0 0 Z M1 4 C0.7499227 6.54190002 0.7499227 6.54190002 1 9 C3.56667108 11.56667108 10.5304917 10.49064546 14 10.625 C15.13179688 10.6765625 16.26359375 10.728125 17.4296875 10.78125 C19.04230469 10.84699219 19.04230469 10.84699219 20.6875 10.9140625 C22.17830078 10.9752124 22.17830078 10.9752124 23.69921875 11.03759766 C25.96448492 11.26733471 25.96448492 11.26733471 27 10 C29.32817964 9.63239269 31.6618385 9.29758419 34 9 C34 8.01 34 7.02 34 6 C34.99 6.99 35.98 7.98 37 9 C36.01 9.33 35.02 9.66 34 10 C34 10.99 34 11.98 34 13 C34.66 13 35.32 13 36 13 C36 12.34 36 11.68 36 11 C36.99 11 37.98 11 39 11 C41.14809171 7.77786243 41.29386153 6.72224599 41 3 C38.95486947 0.95486947 34.69094822 1.83595321 31.87890625 1.83203125 C31.06381088 1.82870285 30.24871552 1.82537445 29.40892029 1.82194519 C27.68139207 1.81687258 25.95385402 1.81453697 24.22631836 1.81469727 C21.57714755 1.81251208 18.92839384 1.79436379 16.27929688 1.77539062 C14.6041681 1.77245656 12.92903733 1.77047185 11.25390625 1.76953125 C10.45803604 1.76234573 9.66216583 1.75516022 8.84217834 1.74775696 C4.45291907 1.58977123 4.45291907 1.58977123 1 4 Z " fill="#45467D" transform="translate(398,81)"/>
<path d="M0 0 C4.51478398 0.53115106 7.34666857 2.36620292 11 5 C8.51181562 9.11091333 5.63944057 12.73386959 2.5 16.375 C1.7471875 17.24898437 0.994375 18.12296875 0.21875 19.0234375 C-2 21 -2 21 -6 21 C-6.33 22.32 -6.66 23.64 -7 25 C-7.66 24.67 -8.32 24.34 -9 24 C-9 23.34 -9 22.68 -9 22 C-9.66 22 -10.32 22 -11 22 C-11 21.34 -11 20.68 -11 20 C-10.34 20 -9.68 20 -9 20 C-9 19.34 -9 18.68 -9 18 C-9.66 17.67 -10.32 17.34 -11 17 C-11 16.34 -11 15.68 -11 15 C-11.99 15.33 -12.98 15.66 -14 16 C-12.59012409 10.830455 -9.13677955 7.24658648 -5 4 C-3.92878906 3.74476562 -3.92878906 3.74476562 -2.8359375 3.484375 C-2.23007812 3.32453125 -1.62421875 3.1646875 -1 3 C-0.67 2.01 -0.34 1.02 0 0 Z " fill="#323476" transform="translate(420,96)"/>
<path d="M0 0 C0.45833545 4.58335447 0.81795523 8.63591423 -2 12.5 C-5.20831232 15.1735936 -6.96972402 16.02483458 -11.05859375 16.2265625 C-13 16 -13 16 -16.0625 14.5 C-18 12 -18 12 -18.1875 8.4375 C-17 5 -17 5 -14.5 3.1875 C-9.85765764 1.61241955 -4.94610731 0 0 0 Z " fill="#F4F5F9" transform="translate(375,108)"/>
<path d="M0 0 C0.45833545 4.58335447 0.81795523 8.63591423 -2 12.5 C-5.20831232 15.1735936 -6.96972402 16.02483458 -11.05859375 16.2265625 C-13 16 -13 16 -16.0625 14.5 C-18 12 -18 12 -18.1875 8.4375 C-17 5 -17 5 -14.5 3.1875 C-9.85765764 1.61241955 -4.94610731 0 0 0 Z " fill="#F4F5F9" transform="translate(572,108)"/>
<path d="M0 0 C18.48 0 36.96 0 56 0 C56 3.96 56 7.92 56 12 C49.4 12 42.8 12 36 12 C36 11.67 36 11.34 36 11 C42.27 11 48.54 11 55 11 C54.505 6.545 54.505 6.545 54 2 C46.75513449 1.97473261 39.51028026 1.9571682 32.26538086 1.94506836 C29.79857967 1.94002644 27.33178148 1.93319309 24.86499023 1.92456055 C21.32795471 1.91248875 17.79095855 1.90677044 14.25390625 1.90234375 C13.14350479 1.89718246 12.03310333 1.89202118 10.88905334 1.88670349 C9.86807053 1.88662796 8.84708771 1.88655243 7.79516602 1.88647461 C6.89137711 1.884254 5.9875882 1.88203339 5.05641174 1.87974548 C3.00746419 1.77099538 3.00746419 1.77099538 2 3 C2 5.64 2 8.28 2 11 C11.405 10.505 11.405 10.505 21 10 C22.92830603 13.85661206 23.25172854 15.17343024 23.25878906 19.27172852 C23.26509338 20.32284317 23.27139771 21.37395782 23.27789307 22.45692444 C23.2738446 23.58617844 23.26979614 24.71543243 23.265625 25.87890625 C23.26753845 27.04252182 23.2694519 28.20613739 23.27142334 29.40501404 C23.27278385 31.86368018 23.26909675 34.32235354 23.26074219 36.78100586 C23.25003144 40.55143293 23.26064727 44.32138455 23.2734375 48.09179688 C23.27211607 50.47916772 23.26955402 52.86653827 23.265625 55.25390625 C23.26967346 56.38518448 23.27372192 57.51646271 23.27789307 58.68202209 C23.27158875 59.72998459 23.26528442 60.77794708 23.25878906 61.85766602 C23.25640228 63.24188499 23.25640228 63.24188499 23.25396729 64.65406799 C23 67 23 67 21 70 C21 50.86 21 31.72 21 12 C14.07 12 7.14 12 0 12 C0 8.04 0 4.08 0 0 Z " fill="#323265" transform="translate(446,62)"/>
<path d="M0 0 C4.62 0 9.24 0 14 0 C14 4.29 14 8.58 14 13 C9.38 13 4.76 13 0 13 C0 8.71 0 4.42 0 0 Z " fill="#303175" transform="translate(790,62)"/>
<path d="M0 0 C4.62 0 9.24 0 14 0 C14 6.27 14 12.54 14 19 C13.67 19 13.34 19 13 19 C12.67 13.39 12.34 7.78 12 2 C7.49774076 1.90785142 7.49774076 1.90785142 3 2 C1.70099687 3.07433058 1.70099687 3.07433058 1.87974548 5.62586975 C1.88196609 6.79613205 1.88418671 7.96639435 1.88647461 9.17211914 C1.88632858 9.81600082 1.88618256 10.45988251 1.8860321 11.12327576 C1.88673115 13.26060303 1.89452309 15.39784413 1.90234375 17.53515625 C1.90420796 19.01346285 1.90563185 20.49177007 1.90663147 21.97007751 C1.91045641 25.86798802 1.92028648 29.76586149 1.93133545 33.66375732 C1.94155008 37.63846333 1.9461292 41.61317529 1.95117188 45.58789062 C1.96190878 53.391944 1.97898491 61.19596682 2 69 C6.95 68.505 6.95 68.505 12 68 C12.495 59.09 12.495 59.09 13 50 C13.33 50 13.66 50 14 50 C14 56.6 14 63.2 14 70 C9.38 70 4.76 70 0 70 C0 46.9 0 23.8 0 0 Z " fill="#32326A" transform="translate(276,62)"/>
<path d="M0 0 C-0.33 1.32 -0.66 2.64 -1 4 C-2.65 4.33 -4.3 4.66 -6 5 C-5.814375 6.093125 -5.62875 7.18625 -5.4375 8.3125 C-5 12 -5 12 -6 15 C-13.42857143 15.14285714 -13.42857143 15.14285714 -17 14 C-16.34670317 9.42692219 -15.22158394 5.73227304 -11.45703125 2.796875 C-7.56156149 0.35468204 -4.68801028 -0.45736686 0 0 Z " fill="#303375" transform="translate(559,81)"/>
<path d="M0 0 C0.33 0.99 0.66 1.98 1 3 C0.01 3.33 -0.98 3.66 -2 4 C-2 7.3 -2 10.6 -2 14 C11.86 14 25.72 14 40 14 C40.33 10.7 40.66 7.4 41 4 C41.33 4 41.66 4 42 4 C42 7.96 42 11.92 42 16 C26.82 16 11.64 16 -4 16 C-4 4 -4 4 0 0 Z " fill="#565884" transform="translate(400,117)"/>
<path d="M0 0 C3.03761179 2.36778332 3.931394 3.54412519 4.51416016 7.41650391 C4.54184986 8.76959894 4.5489343 10.12322018 4.5390625 11.4765625 C4.55675186 12.564496 4.55675186 12.564496 4.57479858 13.67440796 C4.6100175 15.99148917 4.61921271 18.30767348 4.625 20.625 C4.64676809 23.65908707 4.68065469 26.69274534 4.7265625 29.7265625 C4.73689514 30.45151917 4.74722778 31.17647583 4.75787354 31.92340088 C4.88324314 37.50675162 5.65081001 42.59244653 7 48 C2.71 48 -1.58 48 -6 48 C-6 47.34 -6 46.68 -6 46 C-1.545 45.505 -1.545 45.505 3 45 C2.90606597 40.2674048 2.79988574 35.53529726 2.68261719 30.80322266 C2.64446241 29.19522518 2.60958652 27.58714627 2.578125 25.97900391 C2.5321794 23.66018684 2.47423619 21.3419238 2.4140625 19.0234375 C2.40251129 18.31069672 2.39096008 17.59795593 2.37905884 16.86361694 C2.25295135 12.54624099 1.48143437 9.04061041 0 5 C-0.125 2.125 -0.125 2.125 0 0 Z " fill="#33326C" transform="translate(581,85)"/>
<path d="M0 0 C0.33 0 0.66 0 1 0 C1.33 2.64 1.66 5.28 2 8 C2.99 8.33 3.98 8.66 5 9 C5 8.01 5 7.02 5 6 C6.32 5.67 7.64 5.34 9 5 C9 5.99 9 6.98 9 8 C9.99 7.34 10.98 6.68 12 6 C14.1875 6.375 14.1875 6.375 16 7 C16 7.99 16 8.98 16 10 C14.33333333 10 12.66666667 10 11 10 C11.33 10.99 11.66 11.98 12 13 C11.01 13.99 10.02 14.98 9 16 C5.6131157 15.17209495 3.49954087 14.54949495 1.125 11.9375 C-0.41752537 7.90979486 -0.2506888 4.26170968 0 0 Z " fill="#3A3C7A" transform="translate(343,114)"/>
<path d="M0 0 C0.85078125 0.24363281 0.85078125 0.24363281 1.71875 0.4921875 C4.05543918 1.01234091 6.10980766 1.13318559 8.5 1.125 C9.2528125 1.12757812 10.005625 1.13015625 10.78125 1.1328125 C12.973535 1.00158417 14.89319137 0.60331338 17 0 C16.67 2.31 16.34 4.62 16 7 C14.53626953 6.98259766 14.53626953 6.98259766 13.04296875 6.96484375 C11.77066406 6.95582031 10.49835938 6.94679688 9.1875 6.9375 C7.92292969 6.92589844 6.65835938 6.91429688 5.35546875 6.90234375 C2.00394763 6.83840884 2.00394763 6.83840884 -1 8 C-1 5.16032769 -0.59732819 2.76264289 0 0 Z " fill="#ECEEF5" transform="translate(128,113)"/>
<path d="M0 0 C4.29 0 8.58 0 13 0 C13 0.66 13 1.32 13 2 C9.04 1.67 5.08 1.34 1 1 C1.11803187 7.37220263 1.24226441 13.74424224 1.37231445 20.11621094 C1.41569919 22.28512256 1.45737161 24.45406913 1.49731445 26.62304688 C1.55493139 29.73578435 1.61865038 32.84834535 1.68359375 35.9609375 C1.70030624 36.934935 1.71701874 37.9089325 1.73423767 38.91244507 C1.75418289 39.81322784 1.77412811 40.71401062 1.79467773 41.64208984 C1.81022202 42.43706879 1.8257663 43.23204773 1.84178162 44.05111694 C1.88441725 46.07997774 1.88441725 46.07997774 3 48 C5.12576782 48.46651207 5.12576782 48.46651207 7.5625 48.625 C8.38878906 48.69976562 9.21507812 48.77453125 10.06640625 48.8515625 C10.70449219 48.90054688 11.34257813 48.94953125 12 49 C12.33 48.01 12.66 47.02 13 46 C13 47.32 13 48.64 13 50 C8.71 50 4.42 50 0 50 C0 33.5 0 17 0 0 Z " fill="#323268" transform="translate(790,82)"/>
<path d="M0 0 C0.33 0 0.66 0 1 0 C1 12.21 1 24.42 1 37 C-3.29 37 -7.58 37 -12 37 C-12 27.1 -12 17.2 -12 7 C-11.67 7 -11.34 7 -11 7 C-10.67 16.24 -10.34 25.48 -10 35 C-7.36 35 -4.72 35 -2 35 C-0.02170928 33.02170928 -0.74496068 29.17672973 -0.68359375 26.46484375 C-0.66281265 25.71159317 -0.64203156 24.95834259 -0.62062073 24.18226624 C-0.55504575 21.7674401 -0.49620379 19.35250202 -0.4375 16.9375 C-0.3943223 15.30402471 -0.35070827 13.6705609 -0.30664062 12.03710938 C-0.19935638 8.02485536 -0.09811179 4.01248836 0 0 Z " fill="#323268" transform="translate(644,95)"/>
<path d="M0 0 C0 0.99 0 1.98 0 3 C0.639375 3.28875 1.27875 3.5775 1.9375 3.875 C4 5 4 5 5 7 C4.01 7 3.02 7 2 7 C1.67 7.66 1.34 8.32 1 9 C-2.23097953 9.86159454 -4.22486274 10.30597523 -7.375 9.0625 C-7.91125 8.711875 -8.4475 8.36125 -9 8 C-8.505 7.54625 -8.01 7.0925 -7.5 6.625 C-5.77390663 5.12364481 -5.77390663 5.12364481 -6 3 C-7.65 3 -9.3 3 -11 3 C-7.25667087 0.99464511 -4.26323685 0 0 0 Z " fill="#393A7A" transform="translate(569,100)"/>
<path d="M0 0 C0.99 0.99 1.98 1.98 3 3 C1.82331719 5.88822145 0.79754481 7.17353302 -1.625 9.25 C-4.16290483 12.18862664 -4.33178229 12.6681463 -4.3125 16.3125 C-4.209375 17.529375 -4.10625 18.74625 -4 20 C-4.99 19.67 -5.98 19.34 -7 19 C-7.42063499 12.26984015 -6.34778756 6.68318578 -1.8125 1.5 C-1.214375 1.005 -0.61625 0.51 0 0 Z " fill="#363777" transform="translate(125,43)"/>
<path d="M0 0 C0 0.33 0 0.66 0 1 C-1.11375 1.12375 -1.11375 1.12375 -2.25 1.25 C-5.12974515 1.77783918 -5.12974515 1.77783918 -6.9375 4.0625 C-9 6 -9 6 -12.25 6.25 C-13.1575 6.1675 -14.065 6.085 -15 6 C-15.309375 6.94875 -15.61875 7.8975 -15.9375 8.875 C-17 12 -17 12 -18 14 C-18.99 13.67 -19.98 13.34 -21 13 C-19.72472262 7.51630725 -17.56426545 5.22183444 -13 2 C-8.65611664 -0.40056712 -4.8503201 -0.16441763 0 0 Z " fill="#3B3D75" transform="translate(22,79)"/>
<path d="M0 0 C0.66 0 1.32 0 2 0 C2.33 0.66 2.66 1.32 3 2 C4.32 1.67 5.64 1.34 7 1 C7 1.99 7 2.98 7 4 C8.98 4 10.96 4 13 4 C13.33 2.68 13.66 1.36 14 0 C16 2 16 2 16 5 C11.71 5.66 7.42 6.32 3 7 C1.68 5.02 0.36 3.04 -1 1 C-0.67 0.67 -0.34 0.34 0 0 Z " fill="#383A73" transform="translate(684,89)"/>
<path d="M0 0 C4.29 0.66 8.58 1.32 13 2 C13 3.32 13 4.64 13 6 C7.06 6.495 7.06 6.495 1 7 C0 2 0 2 0 0 Z " fill="#F1F3F9" transform="translate(49,113)"/>
<path d="M0 0 C0.33 0 0.66 0 1 0 C1.01981934 0.71542969 1.03963867 1.43085937 1.06005859 2.16796875 C1.15599327 5.4456486 1.26539298 8.72275001 1.375 12 C1.4059375 13.12535156 1.436875 14.25070313 1.46875 15.41015625 C1.6849137 21.57082174 2.21877091 27.09153277 4 33 C-0.29 33 -4.58 33 -9 33 C-9 32.34 -9 31.68 -9 31 C-6.03 31 -3.06 31 0 31 C0 20.77 0 10.54 0 0 Z " fill="#37386C" transform="translate(387,99)"/>
<path d="M0 0 C3.63 0 7.26 0 11 0 C11 4.29 11 8.58 11 13 C6.38 13 1.76 13 -3 13 C-3 12.67 -3 12.34 -3 12 C2.94 11.505 2.94 11.505 9 11 C8.67 8.03 8.34 5.06 8 2 C5.36 1.67 2.72 1.34 0 1 C0 0.67 0 0.34 0 0 Z " fill="#5A5A86" transform="translate(793,62)"/>
<path d="M0 0 C0.66 0 1.32 0 2 0 C3.125 3.75 3.125 3.75 2 6 C2.66 6.33 3.32 6.66 4 7 C3.01 7.66 2.02 8.32 1 9 C1.66 9.33 2.32 9.66 3 10 C-1.95 10 -6.9 10 -12 10 C-9 8 -9 8 -6 8.1875 C-5.01 8.125625 -4.02 8.06375 -3 8 C-0.68858396 5.14925356 0 3.6860549 0 0 Z " fill="#2E3070" transform="translate(683,123)"/>
<path d="M0 0 C-0.66 1.98 -1.32 3.96 -2 6 C-4.64 6 -7.28 6 -10 6 C-10.33 7.32 -10.66 8.64 -11 10 C-11.99 9.67 -12.98 9.34 -14 9 C-10.22053595 3.99776817 -6.74443983 0 0 0 Z " fill="#3B3E78" transform="translate(55,40)"/>
<path d="M0 0 C5.75 3.625 5.75 3.625 8 7 C8 7.99 8 8.98 8 10 C7.34 10 6.68 10 6 10 C5.67 11.65 5.34 13.3 5 15 C4.855625 14.360625 4.71125 13.72125 4.5625 13.0625 C4.18992819 11.02454854 4.18992819 11.02454854 3 10 C2.95936168 8.33382885 2.957279 6.66611905 3 5 C1.68 4.67 0.36 4.34 -1 4 C-0.67 2.68 -0.34 1.36 0 0 Z " fill="#3B3B79" transform="translate(184,81)"/>
<path d="M0 0 C1.37478516 0.01740234 1.37478516 0.01740234 2.77734375 0.03515625 C3.69644531 0.04417969 4.61554687 0.05320312 5.5625 0.0625 C6.27277344 0.07410156 6.98304688 0.08570312 7.71484375 0.09765625 C7.71484375 0.75765625 7.71484375 1.41765625 7.71484375 2.09765625 C5.73484375 2.09765625 3.75484375 2.09765625 1.71484375 2.09765625 C1.52148438 2.80792969 1.328125 3.51820312 1.12890625 4.25 C0.86851562 5.16910156 0.608125 6.08820313 0.33984375 7.03515625 C0.08460938 7.95167969 -0.170625 8.86820313 -0.43359375 9.8125 C-1.28515625 12.09765625 -1.28515625 12.09765625 -3.28515625 13.09765625 C-3.31202178 11.11856227 -3.33149 9.13936654 -3.34765625 7.16015625 C-3.35925781 6.05800781 -3.37085938 4.95585938 -3.3828125 3.8203125 C-3.25076835 0.13892172 -3.25076835 0.13892172 0 0 Z " fill="#303175" transform="translate(509.28515625,81.90234375)"/>
<path d="M0 0 C0.66 0 1.32 0 2 0 C1.6875 2.375 1.6875 2.375 1 5 C0.01 5.66 -0.98 6.32 -2 7 C-2.80336113 9.87759068 -2.80336113 9.87759068 -3.1875 13.125 C-3.34605469 14.22070312 -3.50460938 15.31640625 -3.66796875 16.4453125 C-3.77753906 17.28835937 -3.88710937 18.13140625 -4 19 C-6 17 -6 17 -6.375 13.875 C-5.84651004 8.41393709 -3.90332101 3.90332101 0 0 Z " fill="#424375" transform="translate(124,162)"/>
<path d="M0 0 C1.18851563 0.00902344 2.37703125 0.01804687 3.6015625 0.02734375 C4.51679687 0.03894531 5.43203125 0.05054687 6.375 0.0625 C6.375 0.3925 6.375 0.7225 6.375 1.0625 C5.116875 1.31 3.85875 1.5575 2.5625 1.8125 C-0.4526875 2.54635516 -1.39042813 2.79665188 -3.5 5.1875 C-3.87125 5.80625 -4.2425 6.425 -4.625 7.0625 C-5.285 7.0625 -5.945 7.0625 -6.625 7.0625 C-6.625 6.0725 -6.625 5.0825 -6.625 4.0625 C-7.615 4.0625 -8.605 4.0625 -9.625 4.0625 C-9.295 3.0725 -8.965 2.0825 -8.625 1.0625 C-5.74084117 -0.37957941 -3.20778472 -0.03144887 0 0 Z " fill="#3D4076" transform="translate(618.625,89.9375)"/>
<path d="M0 0 C4.29 0 8.58 0 13 0 C13 2.31 13 4.62 13 7 C12.34 6.34 11.68 5.68 11 5 C10.01 5.66 9.02 6.32 8 7 C7.34 6.67 6.68 6.34 6 6 C5.67 6.66 5.34 7.32 5 8 C5 6.35 5 4.7 5 3 C9.75 1.875 9.75 1.875 12 3 C12 2.34 12 1.68 12 1 C8.04 1 4.08 1 0 1 C0 0.67 0 0.34 0 0 Z " fill="#484984" transform="translate(505,81)"/>
<path d="M0 0 C0.33 0 0.66 0 1 0 C1 1.98 1 3.96 1 6 C1.66 6 2.32 6 3 6 C3 9.63 3 13.26 3 17 C-0.94542536 13.05457464 -0.94542536 13.05457464 -1.1328125 9.43359375 C-1.13023438 8.44488281 -1.12765625 7.45617187 -1.125 6.4375 C-1.12757812 5.44621094 -1.13015625 4.45492187 -1.1328125 3.43359375 C-1 1 -1 1 0 0 Z " fill="#40417A" transform="translate(80,130)"/>
<path d="M0 0 C2.0625 0.4375 2.0625 0.4375 4 1 C4.33 2.32 4.66 3.64 5 5 C4.34 5 3.68 5 3 5 C3 5.99 3 6.98 3 8 C4.65 8 6.3 8 8 8 C8 8.99 8 9.98 8 11 C5.36 10.34 2.72 9.68 0 9 C0 8.34 0 7.68 0 7 C-0.99 6.67 -1.98 6.34 -3 6 C-2.01 5.34 -1.02 4.68 0 4 C-0.33 3.01 -0.66 2.02 -1 1 C-0.67 0.67 -0.34 0.34 0 0 Z " fill="#2F3271" transform="translate(621,81)"/>
<path d="M0 0 C0.66 0 1.32 0 2 0 C4.47815887 4.33677802 4.45248478 8.10968368 4 13 C3 16.0625 3 16.0625 2 18 C1.67 18 1.34 18 1 18 C1.14107747 16.54119891 1.28802415 15.08296449 1.4375 13.625 C1.51871094 12.81289062 1.59992188 12.00078125 1.68359375 11.1640625 C2 9 2 9 3 7 C2.01 7 1.02 7 0 7 C0 4.69 0 2.38 0 0 Z " fill="#3B3C71" transform="translate(229,88)"/>
<path d="M0 0 C0.66 0.66 1.32 1.32 2 2 C-3.0022779 9.66742597 -3.0022779 9.66742597 -7 11 C-7.33 10.01 -7.66 9.02 -8 8 C-6.53619796 5.69973965 -4.92817889 3.92817889 -3 2 C-2.01 2 -1.02 2 0 2 C0 1.34 0 0.68 0 0 Z " fill="#3D3E79" transform="translate(33,63)"/>
<path d="M0 0 C0.33 0 0.66 0 1 0 C1.66 3.3 2.32 6.6 3 10 C-1.29 10 -5.58 10 -10 10 C-10 9.34 -10 8.68 -10 8 C-5.545 7.505 -5.545 7.505 -1 7 C-0.67 4.69 -0.34 2.38 0 0 Z " fill="#585A85" transform="translate(585,123)"/>
<path d="M0 0 C1.95803507 -0.05389087 3.91648909 -0.09274217 5.875 -0.125 C7.51082031 -0.15980469 7.51082031 -0.15980469 9.1796875 -0.1953125 C12 0 12 0 14 2 C13.34 3.32 12.68 4.64 12 6 C9.03824877 5.38722388 7.61941217 4.74627478 5 3 C5.66 3 6.32 3 7 3 C7 2.34 7 1.68 7 1 C4.69 1 2.38 1 0 1 C0 0.67 0 0.34 0 0 Z " fill="#3D3D7E" transform="translate(12,40)"/>
<path d="M0 0 C0 0.33 0 0.66 0 1 C-2.64 1 -5.28 1 -8 1 C-8.33 1.99 -8.66 2.98 -9 4 C-11.31808364 5.03485877 -13.65175298 6.0355414 -16 7 C-16.33 7.66 -16.66 8.32 -17 9 C-17.66 9 -18.32 9 -19 9 C-15.54836546 0.88258811 -8.14362447 -0.84829422 0 0 Z " fill="#4E4E80" transform="translate(219,79)"/>
<path d="M0 0 C0.33 0 0.66 0 1 0 C1.08636719 0.96421875 1.17273437 1.9284375 1.26171875 2.921875 C1.40222656 4.18515625 1.54273438 5.4484375 1.6875 6.75 C1.81511719 8.00296875 1.94273438 9.2559375 2.07421875 10.546875 C3.1803618 14.67274192 4.61595423 15.57267153 8 18 C8 18.99 8 19.98 8 21 C4.62670085 19.60415208 2.95767338 18.07634389 1 15 C-0.09506492 11.71480525 -0.09960608 9.26336585 -0.0625 5.8125 C-0.05347656 4.72582031 -0.04445312 3.63914063 -0.03515625 2.51953125 C-0.02355469 1.68808594 -0.01195312 0.85664063 0 0 Z " fill="#414174" transform="translate(40,130)"/>
<path d="M0 0 C0.66 0.66 1.32 1.32 2 2 C1.67 2.99 1.34 3.98 1 5 C3.16666667 4.16666667 3.16666667 4.16666667 4 2 C4.99 2.66 5.98 3.32 7 4 C6.01 5.485 6.01 5.485 5 7 C2.03 6.67 -0.94 6.34 -4 6 C-2.25 1.125 -2.25 1.125 0 0 Z " fill="#3B3D79" transform="translate(352,90)"/>
<path d="M0 0 C0 0.66 0 1.32 0 2 C-0.86625 2.309375 -0.86625 2.309375 -1.75 2.625 C-5.44371997 4.88227332 -7.45892978 8.28661096 -8.75 12.375 C-8.8325 12.91125 -8.915 13.4475 -9 14 C-9.66 14 -10.32 14 -11 14 C-10.71334273 8.123526 -8.08745753 4.93566865 -4 1 C-2 0 -2 0 0 0 Z " fill="#434376" transform="translate(90,81)"/>
<path d="M0 0 C-0.66 0.66 -1.32 1.32 -2 2 C-2.99 2 -3.98 2 -5 2 C-5 2.66 -5 3.32 -5 4 C-7.31 4.66 -9.62 5.32 -12 6 C-12 3 -12 3 -10.5 1.3125 C-6.8785826 -0.58874414 -4.06242173 -0.20312109 0 0 Z " fill="#41407B" transform="translate(533,80)"/>
<path d="M0 0 C0 0.99 0 1.98 0 3 C-0.66 3 -1.32 3 -2 3 C-2.66 5.97 -3.32 8.94 -4 12 C-5.32 12.33 -6.64 12.66 -8 13 C-7.46760392 8.47463334 -5.72876727 5.61160373 -3 2 C-2.01 1.34 -1.02 0.68 0 0 Z " fill="#444679" transform="translate(87,42)"/>
<path d="M0 0 C1 3 1 3 1 6 C1.66 6 2.32 6 3 6 C3.33 7.32 3.66 8.64 4 10 C3.34 9.67 2.68 9.34 2 9 C2 8.34 2 7.68 2 7 C0.865625 6.87625 -0.26875 6.7525 -1.4375 6.625 C-2.613125 6.41875 -3.78875 6.2125 -5 6 C-5.33 5.34 -5.66 4.68 -6 4 C-5.195625 3.525625 -4.39125 3.05125 -3.5625 2.5625 C-1.15246512 1.23099846 -1.15246512 1.23099846 0 0 Z " fill="#3D3E7E" transform="translate(570,119)"/>
<path d="M0 0 C4.51617599 -0.07654536 8.59085217 -0.10228696 13 1 C13.144375 1.598125 13.28875 2.19625 13.4375 2.8125 C13.8872439 4.56150404 14.42892341 6.28677023 15 8 C14.01 8.66 13.02 9.32 12 10 C11.731875 9.05125 11.46375 8.1025 11.1875 7.125 C10.25013412 3.74732727 10.25013412 3.74732727 7 2 C4.67612053 1.60612212 2.34206251 1.26513915 0 1 C0 0.67 0 0.34 0 0 Z " fill="#33346C" transform="translate(560,89)"/>
<path d="M0 0 C3 3.75 3 3.75 3 6 C2.34 6 1.68 6 1 6 C1.33 7.98 1.66 9.96 2 12 C1.01 12 0.02 12 -1 12 C-1.02712066 10.56260487 -1.04645067 9.12506137 -1.0625 7.6875 C-1.07410156 6.88699219 -1.08570312 6.08648437 -1.09765625 5.26171875 C-1 3 -1 3 0 0 Z " fill="#40427F" transform="translate(1,129)"/>
<path d="M0 0 C1.45792884 -0.05399736 2.91642712 -0.09279177 4.375 -0.125 C5.18710938 -0.14820312 5.99921875 -0.17140625 6.8359375 -0.1953125 C9 0 9 0 11 2 C9.02 2.66 7.04 3.32 5 4 C5 3.34 5 2.68 5 2 C3.35 1.67 1.7 1.34 0 1 C0 0.67 0 0.34 0 0 Z M0 2 C1.98 2.495 1.98 2.495 4 3 C3.01 3.99 2.02 4.98 1 6 C0.34 5.67 -0.32 5.34 -1 5 C-0.67 4.01 -0.34 3.02 0 2 Z " fill="#4A4A84" transform="translate(132,79)"/>
<path d="M0 0 C2.22382199 2.96509599 4.14265723 5.81598383 6 9 C4.02 9.33 2.04 9.66 0 10 C0 6.7 0 3.4 0 0 Z " fill="#EAEDF4" transform="translate(0,141)"/>
<path d="M0 0 C2.625 0.9375 2.625 0.9375 5 2 C5 2.66 5 3.32 5 4 C3.68 4 2.36 4 1 4 C0.67 5.32 0.34 6.64 0 8 C-0.66 7.67 -1.32 7.34 -2 7 C-2 6.34 -2 5.68 -2 5 C-2.66 5 -3.32 5 -4 5 C-4 4.34 -4 3.68 -4 3 C-3.34 3 -2.68 3 -2 3 C-2 2.34 -2 1.68 -2 1 C-1.34 0.67 -0.68 0.34 0 0 Z " fill="#2E3071" transform="translate(413,113)"/>
<path d="M0 0 C0.99 0.33 1.98 0.66 3 1 C0.13924824 5.07106981 -2.37810146 7.13157293 -7 9 C-7.99 9 -8.98 9 -10 9 C-10 8.34 -10 7.68 -10 7 C-8.68 7 -7.36 7 -6 7 C-6 6.34 -6 5.68 -6 5 C-4.68 5 -3.36 5 -2 5 C-2 4.34 -2 3.68 -2 3 C-1.34 3 -0.68 3 0 3 C0 2.01 0 1.02 0 0 Z " fill="#46477A" transform="translate(227,106)"/>
<path d="M0 0 C4.23431576 3.60700972 6.4692099 8.14586161 9 13 C8.01 12.67 7.02 12.34 6 12 C5.67 11.34 5.34 10.68 5 10 C4.01 9.67 3.02 9.34 2 9 C2.33 7.68 2.66 6.36 3 5 C2.34 5 1.68 5 1 5 C0.67 3.35 0.34 1.7 0 0 Z " fill="#3D3E75" transform="translate(320,103)"/>
<path d="M0 0 C2 1.625 2 1.625 4 4 C4.25 7.25 4.25 7.25 4 10 C3.01 10.495 3.01 10.495 2 11 C0.57741188 7.17679443 -0.24042276 4.08718695 0 0 Z " fill="#3B3E72" transform="translate(581,85)"/>
<path d="M0 0 C1.98 0 3.96 0 6 0 C6 0.66 6 1.32 6 2 C7.65 2.33 9.3 2.66 11 3 C10.34 3.66 9.68 4.32 9 5 C5.61702587 4.82194873 4.23727939 4.21162756 1.6875 1.9375 C1.130625 1.298125 0.57375 0.65875 0 0 Z " fill="#3D4073" transform="translate(6,149)"/>
<path d="M0 0 C1.32 0.33 2.64 0.66 4 1 C3.50351065 5.46840411 3.31012244 6.68987756 0 10 C0 6.7 0 3.4 0 0 Z " fill="#484988" transform="translate(197,92)"/>
<path d="M0 0 C1.8871875 0.061875 1.8871875 0.061875 3.8125 0.125 C3.8125 0.455 3.8125 0.785 3.8125 1.125 C2.69875 1.24875 2.69875 1.24875 1.5625 1.375 C-1.71111097 2.26780299 -2.90715318 3.68738789 -5.1875 6.125 C-5.8475 6.125 -6.5075 6.125 -7.1875 6.125 C-7.1875 4.805 -7.1875 3.485 -7.1875 2.125 C-4.09861478 0.06574319 -3.47814073 -0.1140374 0 0 Z " fill="#4A4A85" transform="translate(18.1875,78.875)"/>
<path d="M0 0 C0.66 0.33 1.32 0.66 2 1 C2 3.97 2 6.94 2 10 C1.01 9.67 0.02 9.34 -1 9 C-1.125 2.25 -1.125 2.25 0 0 Z " fill="#44447B" transform="translate(119,53)"/>
<path d="M0 0 C3.63 0 7.26 0 11 0 C10.34 1.65 9.68 3.3 9 5 C4.545 3.02 4.545 3.02 0 1 C0 0.67 0 0.34 0 0 Z " fill="#F3F6F9" transform="translate(140,0)"/>
<path d="M0 0 C0.33 0.66 0.66 1.32 1 2 C1.66 2.33 2.32 2.66 3 3 C2.030625 3.61875 1.06125 4.2375 0.0625 4.875 C-3.02835362 6.65678846 -3.02835362 6.65678846 -4 9 C-4.66 9 -5.32 9 -6 9 C-4.68775452 5.06326356 -3.08089673 2.77280706 0 0 Z " fill="#41427B" transform="translate(165,121)"/>
<path d="M0 0 C0 0.66 0 1.32 0 2 C-1.134375 2.309375 -2.26875 2.61875 -3.4375 2.9375 C-6.78775099 3.62924531 -6.78775099 3.62924531 -8 5 C-9.66617115 5.04063832 -11.33388095 5.042721 -13 5 C-9.5464929 0.77904688 -5.26785261 0 0 0 Z " fill="#36386F" transform="translate(558,103)"/>
<path d="M0 0 C0.66 0 1.32 0 2 0 C3.79217969 5.16569441 4.12029814 8.51053913 3 14 C2.67 14 2.34 14 2 14 C2 11.03 2 8.06 2 5 C1.34 5 0.68 5 0 5 C0 3.35 0 1.7 0 0 Z " fill="#494B7D" transform="translate(775,80)"/>
<path d="M0 0 C1.8871875 0.0309375 1.8871875 0.0309375 3.8125 0.0625 C4.1425 0.7225 4.4725 1.3825 4.8125 2.0625 C3.53375 2.18625 2.255 2.31 0.9375 2.4375 C-2.53540936 2.75292399 -2.53540936 2.75292399 -5.1875 5.0625 C-5.8475 3.7425 -6.5075 2.4225 -7.1875 1.0625 C-4.43671116 0.14557039 -2.82801087 -0.04636083 0 0 Z " fill="#4D4D82" transform="translate(57.1875,78.9375)"/>
<path d="M0 0 C0.94875 0.04125 1.8975 0.0825 2.875 0.125 C0.34711993 2.92372437 -1.32911134 4.58273019 -5.125 5.125 C-5.125 0.85616396 -4.22482433 0.16899297 0 0 Z " fill="#38396F" transform="translate(27.125,148.875)"/>
<path d="M0 0 C1.32 0.66 2.64 1.32 4 2 C4 2.66 4 3.32 4 4 C5.65 4 7.3 4 9 4 C5.1496895 6.56687367 3.41430237 5.83288724 -1 5 C-0.67 3.35 -0.34 1.7 0 0 Z " fill="#383A74" transform="translate(543,90)"/>
<path d="M0 0 C1.32 0.33 2.64 0.66 4 1 C-2.28571429 6.57142857 -2.28571429 6.57142857 -6 7 C-6 6.34 -6 5.68 -6 5 C-5.34 5 -4.68 5 -4 5 C-4 4.34 -4 3.68 -4 3 C-2.68 2.34 -1.36 1.68 0 1 C0 0.67 0 0.34 0 0 Z " fill="#414275" transform="translate(68,68)"/>
<path d="M0 0 C0.33 0 0.66 0 1 0 C1.55353075 10.55808656 1.55353075 10.55808656 -2 15 C-2.93423645 11.98968256 -3.04449911 11.13349732 -2 8 C-1.34 8 -0.68 8 0 8 C0 5.36 0 2.72 0 0 Z " fill="#333268" transform="translate(74,53)"/>
<path d="M0 0 C0.98484375 0.02707031 1.9696875 0.05414063 2.984375 0.08203125 C3.73203125 0.11683594 4.4796875 0.15164062 5.25 0.1875 C4.92 0.8475 4.59 1.5075 4.25 2.1875 C2.7340625 2.1565625 2.7340625 2.1565625 1.1875 2.125 C-2.55327257 2.18437734 -6.06244898 2.58545085 -9.75 3.1875 C-6.47698081 0.21840402 -4.36934238 -0.15604794 0 0 Z " fill="#3E3F71" transform="translate(175.75,39.8125)"/>
<path d="M0 0 C1.32 0 2.64 0 4 0 C3.67 1.65 3.34 3.3 3 5 C1.68 5.33 0.36 5.66 -1 6 C-1.33 5.34 -1.66 4.68 -2 4 C-1.0625 1.875 -1.0625 1.875 0 0 Z " fill="#3A3C7A" transform="translate(367,127)"/>
<path d="M0 0 C1.11196276 3.33588828 1.09809194 4.70572419 0 8 C-2.0625 9.3125 -2.0625 9.3125 -4 10 C-3.43454163 6.04179141 -2.19097652 3.3340947 0 0 Z " fill="#424377" transform="translate(4,46)"/>
<path d="M0 0 C-0.66 1.65 -1.32 3.3 -2 5 C-2.33 4.34 -2.66 3.68 -3 3 C-3.99 3.33 -4.98 3.66 -6 4 C-6 3.34 -6 2.68 -6 2 C-6.66 1.67 -7.32 1.34 -8 1 C-4.93251126 -0.86240388 -3.40254489 -1.2151946 0 0 Z " fill="#45467F" transform="translate(134,41)"/>
<path d="M0 0 C1.258125 -0.04125 2.51625 -0.0825 3.8125 -0.125 C4.52019531 -0.14820312 5.22789062 -0.17140625 5.95703125 -0.1953125 C8 0 8 0 11 2 C5.06 2.495 5.06 2.495 -1 3 C-0.67 2.01 -0.34 1.02 0 0 Z " fill="#505184" transform="translate(132,0)"/>
<path d="M0 0 C2.475 0.99 2.475 0.99 5 2 C4.67 2.66 4.34 3.32 4 4 C2.67511887 4.36548445 1.33981486 4.6937566 0 5 C-1.3479743 5.63654342 -2.68596724 6.29605388 -4 7 C-3.67 6.01 -3.34 5.02 -3 4 C-2.34 4 -1.68 4 -1 4 C-0.67 2.68 -0.34 1.36 0 0 Z " fill="#2E326D" transform="translate(374,124)"/>
<path d="M0 0 C1.65 0 3.3 0 5 0 C5 1.32 5 2.64 5 4 C2.69 4 0.38 4 -2 4 C-1.34 3.67 -0.68 3.34 0 3 C0 2.01 0 1.02 0 0 Z " fill="#DFE1ED" transform="translate(57,115)"/>
<path d="M0 0 C2.4375 0.8125 2.4375 0.8125 5 2 C5.33 2.99 5.66 3.98 6 5 C5.34 5 4.68 5 4 5 C3.67 5.66 3.34 6.32 3 7 C1.68 5.35 0.36 3.7 -1 2 C-0.67 1.34 -0.34 0.68 0 0 Z " fill="#3D3F76" transform="translate(201,105)"/>
<path d="M0 0 C2 2 2 2 2 5 C-2.455 5.495 -2.455 5.495 -7 6 C-6.34 5.34 -5.68 4.68 -5 4 C-3.68 4 -2.36 4 -1 4 C-0.67 2.68 -0.34 1.36 0 0 Z " fill="#4A4B7C" transform="translate(698,89)"/>
<path d="M0 0 C1.67542976 0.28604898 3.34385343 0.61781233 5 1 C5 1.99 5 2.98 5 4 C3.02 4 1.04 4 -1 4 C-1 1 -1 1 0 0 Z " fill="#E9EDF6" transform="translate(134,36)"/>
<path d="M0 0 C1.32 0.66 2.64 1.32 4 2 C3.01 2 2.02 2 1 2 C1 2.66 1 3.32 1 4 C0.01 4 -0.98 4 -2 4 C-2.33 4.66 -2.66 5.32 -3 6 C-3.99 5.67 -4.98 5.34 -6 5 C-4.02 3.35 -2.04 1.7 0 0 Z " fill="#3D3E76" transform="translate(49,120)"/>
<path d="M0 0 C0.99 0.33 1.98 0.66 3 1 C2.01 1.495 2.01 1.495 1 2 C0.67 2.99 0.34 3.98 0 5 C-0.66 4.67 -1.32 4.34 -2 4 C-2.66 5.32 -3.32 6.64 -4 8 C-4.33 7.34 -4.66 6.68 -5 6 C-3.35 4.02 -1.7 2.04 0 0 Z " fill="#3D4072" transform="translate(349,106)"/>
<path d="M0 0 C3.27286682 2.7819368 4.96427697 6.27954067 7 10 C6.01 10 5.02 10 4 10 C3.32845067 8.71086513 2.66291141 7.41859796 2 6.125 C1.62875 5.40570313 1.2575 4.68640625 0.875 3.9453125 C0 2 0 2 0 0 Z " fill="#424375" transform="translate(313,92)"/>
<path d="M0 0 C3.91211733 1.15585285 6.8745041 2.35534962 10 5 C8.02 5 6.04 5 4 5 C4 4.34 4 3.68 4 3 C2.68 2.67 1.36 2.34 0 2 C0 1.34 0 0.68 0 0 Z " fill="#3D3F74" transform="translate(756,62)"/>
<path d="M0 0 C1.98 0.66 3.96 1.32 6 2 C5.01 2.495 5.01 2.495 4 3 C3.67 3.99 3.34 4.98 3 6 C2.01 6 1.02 6 0 6 C-0.38218767 4.34385343 -0.71395102 2.67542976 -1 1 C-0.67 0.67 -0.34 0.34 0 0 Z " fill="#393B81" transform="translate(123,84)"/>
<path d="M0 0 C0.99 0 1.98 0 3 0 C1.73058503 3.91402949 0.48832306 5.79072873 -3 8 C-2.67 6.68 -2.34 5.36 -2 4 C-1.34 4 -0.68 4 0 4 C0 2.68 0 1.36 0 0 Z " fill="#3D3F74" transform="translate(31,104)"/>
<path d="M0 0 C0.33 0 0.66 0 1 0 C1.33 1.98 1.66 3.96 2 6 C0.02 6.99 0.02 6.99 -2 8 C-1.125 1.125 -1.125 1.125 0 0 Z " fill="#454578" transform="translate(713,82)"/>
<path d="M0 0 C0.99 0.66 1.98 1.32 3 2 C3 2.66 3 3.32 3 4 C-0.96 4 -4.92 4 -9 4 C-9 3.67 -9 3.34 -9 3 C-6.03 3 -3.06 3 0 3 C0 2.01 0 1.02 0 0 Z " fill="#37386B" transform="translate(336,128)"/>
<path d="M0 0 C2.97 0.495 2.97 0.495 6 1 C6 1.66 6 2.32 6 3 C2.25 4.125 2.25 4.125 0 3 C0 2.01 0 1.02 0 0 Z " fill="#2F3281" transform="translate(559,126)"/>
<path d="M0 0 C1.4540625 0.0309375 1.4540625 0.0309375 2.9375 0.0625 C-1.8125 4.0625 -1.8125 4.0625 -4.0625 4.0625 C-4.3925 4.7225 -4.7225 5.3825 -5.0625 6.0625 C-3.98897059 0.08140756 -3.98897059 0.08140756 0 0 Z " fill="#E1E3EE" transform="translate(353.0625,80.9375)"/>
<path d="M0 0 C1.98 0 3.96 0 6 0 C5.34 1.32 4.68 2.64 4 4 C1 4 1 4 -2 2 C-1.34 2 -0.68 2 0 2 C0 1.34 0 0.68 0 0 Z " fill="#3A3B7C" transform="translate(107,65)"/>
<path d="M0 0 C0.99 0.33 1.98 0.66 3 1 C0.03 3.475 0.03 3.475 -3 6 C-3.66 5.01 -4.32 4.02 -5 3 C-3.35 2.67 -1.7 2.34 0 2 C0 1.34 0 0.68 0 0 Z " fill="#3D3E72" transform="translate(696,125)"/>
<path d="M0 0 C1.24546405 2.49092811 0.7767578 3.41080733 0 6 C-2.97 5.505 -2.97 5.505 -6 5 C-5.195625 4.360625 -4.39125 3.72125 -3.5625 3.0625 C-1.7249496 1.59396498 -1.7249496 1.59396498 0 0 Z " fill="#3D3E74" transform="translate(373,119)"/>
<path d="M0 0 C0.99 0.495 0.99 0.495 2 1 C2.40729228 3.32156597 2.74438677 5.6568787 3 8 C2.01 7.67 1.02 7.34 0 7 C0 4.69 0 2.38 0 0 Z " fill="#45467A" transform="translate(642,87)"/>
<path d="M0 0 C2.29013653 3.4352048 2.17842973 4.985331 2 9 C1.34 9 0.68 9 0 9 C-1.125 2.25 -1.125 2.25 0 0 Z " fill="#393980" transform="translate(714,78)"/>
</svg>
